<svg width="27" height="27" viewBox="0 0 27 27" fill="none" xmlns="http://www.w3.org/2000/svg">
<path d="M21.8248 8.25746L18.7423 5.17496C18.34 4.79707 17.8129 4.58024 17.2611 4.56572C16.7093 4.5512 16.1715 4.74 15.7498 5.09621L5.62485 15.2212C5.26121 15.5879 5.03479 16.0686 4.9836 16.5825L4.49985 21.2737C4.48469 21.4385 4.50607 21.6046 4.56246 21.7601C4.61886 21.9157 4.70887 22.0569 4.8261 22.1737C4.93122 22.278 5.05588 22.3605 5.19295 22.4165C5.33002 22.4724 5.47679 22.5008 5.62485 22.5H5.7261L10.4173 22.0725C10.9312 22.0213 11.4119 21.7948 11.7786 21.4312L21.9036 11.3062C22.2966 10.891 22.509 10.337 22.4942 9.76556C22.4794 9.1941 22.2387 8.65178 21.8248 8.25746ZM17.9998 12.015L14.9848 8.99996L17.1786 6.74996L20.2498 9.82121L17.9998 12.015Z" fill="#C998DC"/>
</svg>
