<svg width="27" height="27" viewBox="0 0 27 27" fill="none" xmlns="http://www.w3.org/2000/svg">
<path d="M12.15 4.38737L5.4 9.44987C4.8375 9.87737 4.5 10.5411 4.5 11.2499V21.3749C4.5 22.6124 5.5125 23.6249 6.75 23.6249H20.25C21.4875 23.6249 22.5 22.6124 22.5 21.3749V11.2499C22.5 10.5411 22.1625 9.87737 21.6 9.44987L14.85 4.38737C14.0512 3.79112 12.9488 3.79112 12.15 4.38737ZM14.0625 14.0624C14.0625 14.9961 13.3088 15.7499 12.375 15.7499V19.6874C12.375 20.0024 12.1275 20.2499 11.8125 20.2499C11.4975 20.2499 11.25 20.0024 11.25 19.6874V15.7499C10.3162 15.7499 9.5625 14.9961 9.5625 14.0624V11.2499C9.5625 10.9349 9.81 10.6874 10.125 10.6874C10.44 10.6874 10.6875 10.9349 10.6875 11.2499V14.0624H11.25V11.2499C11.25 10.9349 11.4975 10.6874 11.8125 10.6874C12.1275 10.6874 12.375 10.9349 12.375 11.2499V14.0624H12.9375V11.2499C12.9375 10.9349 13.185 10.6874 13.5 10.6874C13.815 10.6874 14.0625 10.9349 14.0625 11.2499V14.0624ZM16.3125 20.2499C15.9975 20.2499 15.75 20.0024 15.75 19.6874V16.3124H15.1875C14.8725 16.3124 14.625 16.0649 14.625 15.7499V12.9374C14.625 11.9474 15.2662 11.1036 16.155 10.8111C16.5037 10.6874 16.875 10.9686 16.875 11.3511V19.6874C16.875 20.0024 16.6275 20.2499 16.3125 20.2499Z" fill="#C998DC"/>
</svg>
