<svg width="27" height="27" viewBox="0 0 27 27" fill="none" xmlns="http://www.w3.org/2000/svg">
<path d="M20.25 3.375H6.75C5.85489 3.375 4.99645 3.73058 4.36351 4.36351C3.73058 4.99645 3.375 5.85489 3.375 6.75V20.25C3.375 21.1451 3.73058 22.0036 4.36351 22.6365C4.99645 23.2694 5.85489 23.625 6.75 23.625H20.25C21.1451 23.625 22.0036 23.2694 22.6365 22.6365C23.2694 22.0036 23.625 21.1451 23.625 20.25V6.75C23.625 5.85489 23.2694 4.99645 22.6365 4.36351C22.0036 3.73058 21.1451 3.375 20.25 3.375ZM6.75 5.625H20.25C20.5484 5.625 20.8345 5.74353 21.0455 5.9545C21.2565 6.16548 21.375 6.45163 21.375 6.75V16.155L17.775 13.0837C17.2172 12.6248 16.5173 12.3739 15.795 12.3739C15.0727 12.3739 14.3728 12.6248 13.815 13.0837L5.625 19.9125V6.75C5.625 6.45163 5.74353 6.16548 5.9545 5.9545C6.16548 5.74353 6.45163 5.625 6.75 5.625Z" fill="#C998DC"/>
<path d="M9 11.25C9.93198 11.25 10.6875 10.4945 10.6875 9.5625C10.6875 8.63052 9.93198 7.875 9 7.875C8.06802 7.875 7.3125 8.63052 7.3125 9.5625C7.3125 10.4945 8.06802 11.25 9 11.25Z" fill="#C998DC"/>
</svg>
